<svg width="210" height="210" viewBox="0 0 210 210" fill="none" xmlns="http://www.w3.org/2000/svg">
<ellipse cx="105" cy="106.061" rx="105" ry="103.765" fill="#2E4F2B" fill-opacity="0.43"/>
<path d="M24.2467 142.031C23.5715 143.48 23.3672 139.043 22.5323 142.153C22.3272 141.568 22.1198 140.973 21.9176 140.374C22.3978 140.14 22.8763 139.902 23.357 139.669C23.6515 140.467 23.9488 141.253 24.2492 142.03C24.2483 142.03 24.2475 142.031 24.2467 142.031ZM30.796 142.022C29.2161 141.581 28.4019 139.346 27.5313 142.036C28.0646 142.147 28.5985 142.26 29.1315 142.367C28.9187 143.318 28.7155 144.285 28.5152 145.226C28.7689 145.504 29.0228 145.778 29.2746 146.05C28.5004 146.608 27.7249 147.165 26.9522 147.728C27.0012 147.356 27.0519 146.976 27.1021 146.6C26.1123 145.361 25.64 144.028 25.1524 142.172C24.9798 142.372 24.8094 142.572 24.6373 142.772C24.8004 141.757 24.9692 140.732 25.1431 139.701C25.6354 140.497 26.1868 141.368 26.6492 142.075C27.7678 140.639 26.6236 138.574 26.1448 137.434C25.4992 135.931 26.2067 136.209 25.7535 135.097C25.6825 134.92 25.1723 134.966 25.1073 134.603C24.7737 132.76 24.5567 129.117 26.0287 131.076C26.3107 134.2 27.6488 136.516 27.8415 139.588C29.0653 138.591 29.8008 140.098 30.796 142.022ZM23.5532 86.3337C24.1 87.3786 23.6204 89.236 23.0407 90.4907C23.0406 90.4922 23.0405 90.4937 23.0403 90.4952C22.9121 90.7689 21.964 91.3179 22.0838 90.3724C22.2875 88.8276 23.7701 88.3022 22.912 87.3576C23.1301 87.0266 23.3322 86.6769 23.5532 86.3337ZM23.9398 82.9946C24.4316 82.1242 25.404 82.7638 24.9429 83.8721C24.9437 83.8723 24.9445 83.8724 24.9454 83.8726C24.7554 84.3383 24.0622 83.2209 24.6537 85.137C23.9488 85.3783 23.3064 85.6178 22.6258 85.8658C22.6707 85.4322 22.7041 85.0501 22.7609 84.5816C23.795 85.0851 23.4521 83.8699 23.9398 82.9946ZM25.2294 129.62C24.2412 129.581 24.3236 130.174 23.7918 131.266C23.6906 130.303 23.5979 129.339 23.5084 128.368C24.0821 128.792 24.6541 129.206 25.2294 129.62ZM29.2997 152.212C29.3001 152.214 29.3004 152.215 29.3008 152.217C29.5271 152.49 29.7495 152.741 29.9773 153.02C29.6905 153.299 29.4051 153.575 29.1193 153.854C29.7394 154.939 30.362 155.974 30.9838 156.942C29.9247 157.105 29.5394 155.115 28.519 154.125C28.381 152.33 28.8244 151.517 29.6685 151.192C29.5456 151.532 29.4206 151.871 29.2997 152.212ZM125.243 172.545C125.626 172.313 125.999 172.073 126.369 171.828C125.945 171.618 125.526 171.433 125.116 171.186C123.739 172.231 123.816 171.069 122.322 170.736C117.796 169.526 118.072 171.767 115.359 167.182C118.385 168.842 117.752 166.972 119.911 166.722C120.045 167.659 117.54 168.623 118.697 169.509C121.235 169.594 123.567 169.452 126.093 169.351C126.042 169.197 125.992 169.042 125.943 168.888C125.548 168.904 125.153 168.914 124.751 168.914C125.237 168.635 125.697 168.345 126.161 168.041C125.512 168.799 126.915 168.565 126.612 169.517C126.476 169.944 125.775 170.444 125.335 170.784C126.257 171.204 127.235 171.572 128.227 171.909C127.678 172.202 127.117 172.483 126.547 172.75C126.112 172.692 125.682 172.624 125.25 172.551C125.247 172.549 125.245 172.547 125.243 172.545ZM178.008 68.0563C176.336 67.617 174.586 65.7978 174.58 64.0682C175.703 65.365 176.845 66.6917 178.008 68.0563ZM30.366 150.924C30.2378 151.117 30.1104 151.305 29.9827 151.497C29.5071 150.885 29.0327 150.248 28.5579 149.598C29.007 149.358 29.4559 149.115 29.9027 148.873C30.0561 149.568 30.2099 150.255 30.366 150.924ZM24.0999 105.951C24.1375 106.472 24.1217 106.518 24.0641 107.166C24.0646 107.165 24.065 107.164 24.0654 107.163C24.0408 107.42 23.8138 109.57 23.4276 109.331C23.3859 108.26 23.3648 107.116 23.3491 106.019C23.5993 105.99 23.8478 105.988 24.0999 105.951ZM24.4773 118.496C24.4766 118.497 24.4759 118.499 24.4751 118.5C24.4486 118.894 24.3618 119.269 24.3747 119.672C23.6554 118.253 24.7109 117.975 24.3131 116.688C23.916 115.399 23.2733 114.596 24.6832 113.448C24.9261 113.855 25.267 114.29 25.5496 114.704C25.0777 116.57 25.6691 117.042 26.3635 118.486C25.7333 118.489 25.1075 118.493 24.4773 118.496ZM107.589 160.449C106.894 160.819 107.059 160.021 107.038 159.991C107.039 159.991 107.04 159.991 107.041 159.99C104.468 158.635 107.549 159.929 105.65 158.066C106.06 158.197 106.47 158.309 106.875 158.422C107.096 159.087 107.331 159.814 107.589 160.449ZM64.7276 74.7134C64.9254 74.6366 65.1223 74.5543 65.3202 74.4776C65.7063 76.156 66.6239 76.3757 66.262 77.9419C65.7434 76.8683 65.2318 75.7935 64.7251 74.714C64.7259 74.7138 64.7267 74.7136 64.7276 74.7134ZM25.7658 97.04C26.0872 99.0588 26.2327 100.482 25.5724 102.347C25.5716 102.348 25.5707 102.35 25.5699 102.351C25.5293 102.459 25.0901 101.912 24.977 102.049C25.0396 102.444 25.1393 102.852 25.2176 103.25C24.862 103.29 24.5065 103.329 24.1531 103.37C24.2554 102.254 24.3689 101.14 24.4947 100.027C24.2832 100.18 24.0736 100.338 23.8626 100.493C23.7739 99.5304 23.6937 98.5849 23.6236 97.6069C24.1931 97.9842 24.764 98.3618 25.3384 98.7223C25.4782 98.1647 25.6171 97.5978 25.7658 97.04ZM70.8805 102.903C70.9958 102.54 71.5486 102.948 71.5778 102.437C71.6041 101.926 70.9125 101.244 71.5939 101.228C71.8842 101.796 72.2022 102.398 72.5055 102.977C72.9101 100.632 71.2465 99.0215 72.6068 98.5353C72.8905 100.531 73.5983 102.023 74.6279 103.696C73.5201 104.008 71.9306 102.507 71.3261 104.012C71.1792 103.647 71.0198 103.264 70.8843 102.906C70.883 102.905 70.8817 102.904 70.8805 102.903ZM32.3231 157.84C32.3483 157.34 32.2133 156.468 32.1253 155.436C32.0383 154.421 32.0284 153.638 32.3053 152.898C32.4454 152.564 34.4809 151.249 34.7617 151.228C35.7152 151.207 35.9752 152.684 36.453 151.052C36.5087 151.597 36.5885 152.107 36.6471 152.614C37.2782 152.49 37.9074 152.364 38.5363 152.24C38.3875 151.612 38.2327 150.961 38.0707 150.287C38.2787 150.239 38.4872 150.192 38.6952 150.144C38.9198 152.556 39.6063 151.086 40.4705 152.256C40.7643 151.141 41.0385 149.939 41.298 148.673C41.3231 149.392 41.3653 150.207 41.3626 150.797C42.4533 150.816 42.0617 149.396 42.2348 149.118C42.7279 148.349 43.0242 149.858 43.3569 151.444C43.6956 153.077 44.0458 154.554 44.8622 154.973C44.9635 153.807 45.0643 152.874 45.142 151.727C45.363 152.033 45.5832 152.339 45.8018 152.637C45.578 153.259 45.3943 153.874 45.2344 154.478C45.0846 155.231 44.9568 155.982 44.8326 156.696C44.5825 158.152 44.3602 159.329 44.0086 161.015C44.0508 161.291 44.092 161.56 44.1279 161.816C44.6203 161.772 45.1107 161.728 45.6029 161.676C45.6517 162.09 45.6946 162.491 45.7328 162.87C44.9526 162.242 44.5493 162.336 44.2075 162.763C43.8675 163.191 43.5361 164.406 42.8914 165.099C42.5071 164.152 42.9374 162.59 41.8695 162.668C42.0091 163.711 42.0136 164.514 41.8225 165.372C41.6864 165.9 41.579 166.165 41.3446 166.376C41.2433 166.443 41.2168 166.423 41.129 166.387C41.0428 166.347 40.901 166.242 40.735 166.054C39.7238 164.795 38.986 162.713 37.9959 161.442C37.5034 160.767 36.148 161.056 35.6422 159.147C35.8052 159.166 36.0649 159.095 36.2649 159.077C34.5497 155.896 33.5953 153.84 33.3757 150.187C32.9495 150.497 32.521 150.806 32.0959 151.118C32.5152 151.802 32.9444 152.488 33.3909 153.228C32.7513 153.943 32.1957 153.29 32.8298 155.544C33.3498 157.339 33.3862 156.173 33.7555 156.592C34.2845 157.236 33.8602 158.04 34.4411 158.668C34.8866 159.139 35.3281 158.371 35.6297 159.808C34.6274 159.527 33.5866 159.198 32.5593 158.83C32.6279 158.401 32.701 157.969 32.7733 157.529C33.1115 157.856 33.4441 158.167 33.7805 158.472C32.9613 157.236 32.2412 156.149 31.4591 154.916C32.7829 155.043 31.9511 153.774 31.6027 153.007C31.0672 151.847 32.1625 152.673 31.8326 151.955C31.5056 151.248 30.37 150.648 30.2367 149.175C30.9563 149.822 31.2001 148.68 31.747 148.775C32.2935 148.873 32.7515 150.319 32.9631 148.785C31.9119 146.097 30.6952 149.519 29.9577 147.689C29.1079 145.605 32.1243 144.466 32.9302 144.994C33.5672 145.421 33.8215 147.085 34.4792 147.555C34.7287 144.259 32.8775 144.608 32.392 144.126C30.6546 142.388 34.4744 143.029 32.741 140.971C33.4176 140.901 34.0254 140.834 34.6746 140.768C34.4789 140.401 34.268 140.17 34.0832 139.71C33.0408 141.322 32.8822 140.173 32.7711 139.576C32.5955 138.638 32.2242 140.191 32.0148 139.969C31.4512 139.371 31.4592 138.258 31.002 139.009C31.2165 138.671 31.428 138.307 31.6403 137.96C31.1058 136.878 27.8761 134.656 28.855 137.076C27.771 136.973 28.1402 136.111 28.1983 135.46C28.2565 134.81 27.5943 134.91 27.6303 134.336C27.7822 132.043 29.1419 133.365 30.0856 133.596C29.0402 130.754 29.0335 133.647 28.0412 129.478C27.2582 129.148 26.7418 131.178 26.1045 129.601C27.3314 129.164 28.0768 127.888 28.2274 125.497C27.9097 125.294 27.5896 125.09 27.2723 124.884C28.3045 123.5 29.5883 124.083 27.9003 121.835C30.7022 122.907 28.8948 122.162 29.7961 119.992C29.9783 119.554 30.6211 120.503 30.8502 119.893C30.9535 119.617 30.4771 118.988 30.7482 118.311C30.8808 117.972 31.8016 116.458 31.2438 115.448C29.9944 116.257 28.757 114.318 27.7949 116.059C27.8495 112.893 27.1313 110.7 29.0923 114.189C29.4388 113.38 29.7888 112.575 30.1437 111.775C29.8076 111.228 29.4763 110.676 29.1471 110.119C30.2165 110.029 30.5092 110.113 30.2618 107.946C30.5379 108.888 30.8257 109.822 31.1188 110.759C31.3361 110.789 31.5661 110.917 31.7745 110.884C31.3073 109.743 31.0488 106.501 30.7627 105.708C30.4687 104.915 30.4086 106.434 30.1299 106.202C27.8274 104.255 29.5133 104.435 29.1241 103.06C28.8958 102.246 28.6381 104.158 28.5411 103.725C28.1824 102.109 29.4047 101.423 29.452 100.024C28.7523 100.482 28.0444 100.943 27.3431 101.403C27.4005 99.908 27.4565 98.2509 27.3006 96.8305C27.24 96.2751 26.7098 96.6467 26.6797 96.5544C26.5218 96.0936 26.3482 94.2532 26.3616 94.0616C26.4559 92.6141 27.1637 92.6754 27.3227 91.2654C27.3337 91.8263 27.3455 92.3514 27.3634 92.8873C28.4905 93.2583 29.6183 93.6276 30.7498 93.9858C30.9241 92.6819 31.1204 91.3425 31.3403 90.0309C30.859 90.9429 30.3892 91.8893 29.9307 92.823C29.1254 91.1791 28.351 89.4887 27.6117 87.7878C28.2742 87.0621 28.9398 86.3807 29.6193 85.6691C29.7902 83.4605 27.4529 83.4215 29.6212 82.8073C29.5618 82.1329 29.5092 81.4592 29.4657 80.7868C29.7319 80.9445 29.9993 81.1005 30.2661 81.2565C30.2345 80.464 30.218 79.6526 30.2126 78.8299C29.0339 79.3835 27.8141 79.931 26.6831 80.5221C26.7626 78.922 27.6337 79.0891 27.8919 78.9121C28.5814 78.4363 28.104 77.0131 28.7398 76.6754C28.9531 76.5648 29.1588 78.2219 29.9217 77.8806C30.0699 77.795 32.8851 76.534 32.6807 75.1927C32.2518 75.0773 31.7075 75.0022 31.2337 74.9035C31.4448 73.139 33.9191 73.0776 34.4564 73.5245C34.2932 72.5152 34.6859 71.2826 34.09 70.8414C34.2284 70.407 34.3703 69.9812 34.5179 69.5541C35.9359 70.6899 36.3397 68.8171 35.0474 68.0556C34.704 68.7677 34.3648 69.5177 34.0636 70.2211C32.6186 68.9416 30.6111 70.7927 34.1603 66.6968C35.4089 66.2273 33.3495 68.2379 34.3117 67.8165C35.2234 66.7292 35.4596 65.418 36.6273 64.6301C38.1253 63.653 37.7883 65.7431 38.7828 62.0656C32.4965 67.7976 37.4706 59.9137 39.7452 56.4013C42.4496 57.3686 44.9195 55.7041 48.1451 52.8872C47.3822 52.4653 46.4281 53.5246 45.6627 53.7962C44.8813 54.0763 45.3194 53.19 44.3065 53.5361C43.2871 53.872 41.3361 55.0319 40.2437 55.468C40.4884 54.4716 43.387 50.6582 41.8461 53.5823C44.016 52.6518 45.2318 52.6402 47.5624 51.4149C47.6945 50.0379 47.3137 49.3137 49.791 48.1976C49.0059 50.2676 52.1231 50.1887 52.1208 51.9872C50.4384 52.2463 50.6744 50.4075 49.4104 50.1238C49.2643 50.0918 47.9045 51.2331 47.5624 51.4149C49.7704 51.8411 50.4172 52.1812 50.3476 54.1285C51.2458 53.5043 51.9149 53.4775 51.692 52.6758C52.0363 52.9199 52.3753 53.1702 52.7032 53.4275C53.0156 53.2994 53.2929 53.1652 53.6405 53.0567C52.7559 52.0457 53.9278 52.4468 54.4707 51.7177C54.887 51.1704 54.3059 50.6493 54.8292 50.1969L53.6201 49.3865C53.7621 49.5876 53.8903 49.9207 54.0011 50.4756C54.0724 50.0649 54.1368 49.6748 54.2009 49.2883L54.6731 49.6049C54.3267 49.562 53.9821 49.5257 53.6273 49.4925C53.9189 49.3326 54.2167 49.1769 54.5205 49.0258L54.7367 48.9814L54.769 49.1923C55.2077 50.2291 55.6522 51.271 56.1001 52.3135C56.6186 51.1922 57.2768 48.887 58.2352 48.7875C57.9983 49.4855 59.0569 51.5788 59.1323 51.8165C59.4155 52.7351 58.7185 52.3318 58.7178 52.4051C58.7252 53.9395 59.1749 55.0942 58.3905 55.8217C59.0265 56.8469 58.9713 57.7233 59.248 58.8945C59.4008 59.5401 60.0329 59.2793 59.9894 59.6793C59.7048 62.3351 58.3117 60.1371 61.0322 64.6236C61.3564 63.9453 61.6933 63.2685 62.0248 62.5917C62.3209 63.0981 62.6186 63.6024 62.9166 64.1071C62.9162 64.4844 62.9151 64.8591 62.916 65.2373C61.9207 65.4431 60.9229 65.6476 59.9276 65.8532C59.9665 66.2633 60.0081 66.675 60.0485 67.086C59.7885 66.4225 59.5302 65.7576 59.274 65.0948C59.0847 65.0695 58.8962 65.0482 58.7068 65.0228C58.6707 66.0971 58.6362 67.1725 58.6082 68.2555C58.958 68.1991 59.3102 68.1417 59.6601 68.0852C59.7333 70.4925 59.4568 70.6188 60.9483 72.5735C61.3596 74.2527 63.1518 75.2756 64.0064 76.0815C63.9046 76.473 63.8011 76.8662 63.7017 77.2628C64.0455 77.4126 64.3888 77.5645 64.7328 77.7132C64.4533 78.2496 64.1765 78.7936 63.9016 79.3326C64.8677 79.3472 65.1788 79.3992 65.0371 77.6169C66.3095 77.9194 66.6313 81.0301 66.6035 82.3438C66.5802 83.3415 65.3611 82.5674 65.2806 82.7125C65.0045 83.2018 65.7718 84.6374 65.8015 84.9741C65.9289 86.4004 66.2551 87.3342 66.4167 88.612C66.4469 88.8608 66.0622 89.694 66.0612 89.756C66.0939 90.2239 66.1429 91.3907 66.1733 91.5163C67.7394 97.9921 68.1131 90.4654 69.7373 96.3957C70.0122 96.1157 70.2899 95.8508 70.5667 95.5756C70.7306 96.0078 70.8963 96.4456 71.0627 96.8789C70.9709 97.5251 70.2408 97.0144 71.0185 97.9894C70.5856 98.0503 70.1524 98.1106 69.7201 98.1664C70.1028 98.5783 70.4785 98.9716 70.8665 99.3909C69.7087 100.63 70.3807 103.569 68.659 103.942C68.0702 104.069 66.7805 102.237 66.5537 103.513C66.743 104.429 67.2076 103.606 67.3685 103.951C68.5256 106.432 67.5391 106.611 68.171 107.568C68.6335 107.588 69.1068 107.612 69.5744 107.632C69.601 108.065 69.6293 108.501 69.661 108.942C69.965 108.935 70.2705 108.931 70.5743 108.923C70.4534 108.547 70.3151 108.122 70.2086 107.78C71.4211 107.88 73.5366 111.991 72.0208 110.692C71.4029 110.162 71.089 108.873 70.1537 110.11C70.7733 111.206 71.4615 112.442 72.1194 113.581C71.8712 113.722 71.6216 113.861 71.3736 114.002C72.2022 115.577 72.6541 113.667 73.2205 113.45C73.3854 113.817 73.5506 114.187 73.7169 114.552C73.5264 114.811 73.3211 115.068 73.1422 115.332C73.5534 115.184 74.5758 115.014 74.6816 116.252C74.7489 117.05 73.267 116.358 73.9721 117.647C74.5583 117.284 75.118 116.485 75.9503 117.889C75.3595 118.314 74.8488 118.774 74.2119 119.182C75.6464 120.79 75.0086 122.069 76.7227 123.919C77.8153 125.105 80.2958 126.173 78.2536 128.245C78.6785 129.28 79.1369 128.659 79.4196 128.886C80.7554 129.95 80.1178 131.553 80.1828 131.847C80.5828 133.692 81.3866 134.239 81.5644 135.851C81.9698 135.533 82.3697 135.261 82.7725 134.965C81.4565 134.136 81.1373 133.468 80.4112 131.705C80.796 132.23 81.1815 132.744 81.5772 133.274C81.8913 132.986 82.2064 132.699 82.5215 132.417C78.3828 127.914 81.2985 128.016 84.0456 132.083C83.5714 132.818 83.1104 133.571 82.6407 134.312C85.0162 136.256 84.8039 137.931 86.2651 140.827C86.4338 141.162 87.5538 142.14 87.8934 142.633C87.8905 142.623 87.8876 142.613 87.8847 142.603C88.69 142.527 88.6977 141.918 89.2083 141.519C89.448 141.748 89.6878 141.976 89.9279 142.201C89.9041 143.071 89.4304 143.091 90.2998 144.199C90.6 143.765 90.9033 143.336 91.2067 142.906C92.0472 144.155 92.2003 145.324 93.2016 146.346C92.9143 146.261 92.6279 146.176 92.3398 146.086C93.7567 148.905 89.9964 148.598 92.5557 149.678C92.448 149.955 92.3368 150.231 92.2307 150.509C91.5761 149.735 90.9537 148.977 90.3321 148.201C90.033 148.394 89.7341 148.584 89.4371 148.779C90.1423 149.597 90.8562 150.395 91.5946 151.204C90.9314 150.716 90.27 150.216 89.6243 149.723C90.2028 150.826 90.8402 151.973 91.4741 153.075C91.6853 151.2 92.8606 152.471 93.6728 151.401C94.1415 153.758 94.2005 156.131 97.1621 158.049C97.7601 158.428 98.1404 157.526 98.6872 159.699C99.3857 158.352 101.492 159.527 102.224 158.307C101.724 157.905 101.24 157.47 100.753 157.078C100.905 157.922 100.084 158.963 99.0431 158.436C97.7028 157.754 96.9955 155.571 95.9853 156.619C95.662 156.144 95.3471 155.713 95.0326 155.249C95.4507 155.187 95.8658 155.117 96.2782 155.045C94.8478 154.235 94.3437 153.307 94.5936 152.162C95.897 153.473 97.2475 154.759 98.6088 155.962C98.4694 155.715 98.3382 155.474 98.2055 155.233C99.7922 155.613 99.4924 153.991 101.341 155.697C101.029 155.985 100.718 156.275 100.404 156.564C101.841 156.453 103.575 158.181 103.911 156.671C104.166 157.486 104.111 157.783 104.883 157.545C105.613 159.608 105.817 161.419 104.318 162.114C105.05 162.433 105.78 162.731 106.503 163.006C106.416 162.405 106.336 161.807 106.267 161.208C107.235 162.063 108.195 162.857 109.216 163.638C108.617 164.729 107.045 162.445 106.999 163.786C106.992 164.059 107.811 164.1 107.892 164.314C108.71 166.592 106.782 163.941 106.658 165.122C108.862 167.148 105.989 167.254 110.182 168.328C110.096 168.692 110.016 169.068 109.928 169.428C111.17 170.223 111.452 169.457 112.588 169.931C113.285 170.214 113.576 171.956 114.745 171.459C114.943 171.347 114.385 169.212 116.987 170.489C119.038 171.422 117.77 172.205 118.813 173.068C119.908 173.958 123.02 173.089 123.489 175.149C122.88 174.748 122.086 174.4 121.43 173.99C121.054 174.271 120.679 174.544 120.293 174.813C122.045 174.865 123.684 175.834 124.943 175.159C126.992 176.969 129.694 175.877 129.059 174.266C128.341 174.425 129.075 175.179 128.106 174.645C128.03 174.272 127.95 173.9 127.88 173.527C129.523 173.765 130.68 173.785 129.888 174.853C130.15 174.896 130.412 174.937 130.677 174.975C130.732 174.176 130.778 173.373 130.828 172.573C131.126 172.495 131.426 172.414 131.722 172.328C131.894 172.42 132.066 172.512 132.241 172.603L132.07 172.611C132.21 172.686 132.351 172.755 132.495 172.817C132.456 173.476 132.172 173.835 132.275 174.084C132.374 174.303 132.895 174.59 134.303 174.347C134.117 173.947 133.932 173.547 133.741 173.149C135.441 172.742 136.665 173.124 137.774 170.429C138.132 171.667 137.285 172.588 136.84 172.99C136.379 173.437 136.217 173.699 137.278 174.808C136.635 175.182 135.924 175.472 135.195 175.632C135.309 176.078 135.404 176.531 135.484 176.986C140.273 174.265 138.032 167.362 140.103 166.068C139.902 165.788 139.728 165.512 139.504 165.229C140.154 164.283 139.833 163.459 139.539 162.658C139.241 161.921 138.975 161.298 139.687 160.307C139.826 160.086 142.269 160.62 142.043 157.806C141.737 157.885 141.216 157.935 140.828 158C140.986 157.405 141.141 156.74 141.292 156.174C140.999 156.09 140.705 156.002 140.409 155.919C140.37 156.828 140.331 157.974 140.261 158.947C140.127 158.121 139.976 157.26 139.814 156.406C139.428 157.547 139.446 158.031 138.656 157.396C138.546 156.382 138.435 155.622 138.309 154.734C138.109 154.657 137.906 154.581 137.706 154.504C137.175 154.964 136.653 155.415 136.105 155.85C136.393 153.655 136.172 151.582 137.041 149.611C137.189 149.298 138.076 150.252 137.13 148.335C137.517 148.258 137.828 148.166 138.185 148.088C136.723 145.733 136.919 144.872 137.235 142.006C136.807 143.901 137.008 142.213 136.542 141.863C136.218 141.605 136.461 142.767 136.154 142.683C135.844 142.559 134.448 141.28 134.53 142.554C137.426 145.491 134.769 146.674 136.435 150.527C136.043 149.876 135.661 149.344 135.273 148.775C135.107 149.081 134.955 149.352 134.777 149.676C134.938 147.474 134.783 148.549 134.291 147.7C133.797 146.846 133.226 145.216 132.931 144.078C132.839 143.72 133.43 144.029 133.338 143.197C133.267 142.578 132.247 141.333 133.098 140.835C133.652 140.515 135.725 142.615 135.125 139.353C135.594 138.639 135.704 140.244 135.779 140.264C136.528 140.442 136.68 138.336 135.964 137.468C135.904 137.399 135.506 138.239 135.138 137.461C134.263 135.631 134.634 134.295 135.231 132.968C134.222 133.013 132.731 131.66 132.665 129.584C132.363 129.536 132.059 129.493 131.755 129.444C131.97 129.727 132.182 130.01 132.396 130.292C132.292 130.664 132.239 131.045 132.101 131.412C131.439 129.459 130.024 129.428 129.322 128.557C126.91 125.557 130.914 126.866 131.662 127.353C131.508 127.837 131.321 128.312 131.152 128.791C131.483 128.677 131.816 128.561 132.149 128.45C131.046 123.438 134.194 127.234 134.27 124.576C132.454 124.276 131.89 122.498 132.412 119.918C132.344 119.659 132.282 119.397 132.211 119.137C131.958 119.145 131.585 119.224 131.408 119.187C130.468 116.394 132.918 115.335 133.102 115.02C133.907 113.607 132.193 113.005 132.098 112.658C131.699 111.196 132.26 110.621 131.64 109.273C130.971 107.822 130.709 108.972 130.143 108.61C129.694 108.32 129.342 107.132 128.85 106.724C129.203 106.85 129.556 107.003 129.911 107.132C129.954 105.472 130.057 104.109 129.732 102.309C127.007 100.801 130.381 98.2548 127.478 99.6277C127.672 101.358 127.549 102.376 126.983 103.45C126.618 102.368 126.255 101.284 125.89 100.201C126.149 99.8037 126.422 99.5019 126.674 99.0445C125.761 98.3795 125.607 96.3902 125.216 95.6832C123.389 92.3747 122.427 93.7283 123.718 90.0739C124.466 92.3391 125.461 92.1169 125.873 94.4456C126.466 93.792 126.04 92.6577 127.073 93.2248C126.333 91.0507 125.743 91.9365 124.862 91.2215C124.101 90.6046 123.715 89.1169 122.977 89.3665C123.358 89.1229 123.733 88.9171 124.114 88.6745C123.768 87.2299 123.425 85.7693 123.086 84.3286C123.664 84.851 124.244 85.3738 124.822 85.898C124.877 85.3959 124.932 84.8942 124.988 84.3942C122.804 81.1548 123.924 74.5109 120.733 76.1765C120.243 74.4749 120.627 74.1786 121.072 73.1258C120.79 73.0749 120.553 73.0181 120.243 72.9728C120.277 71.8184 119.131 71.1978 119.176 70.1561C119.217 69.1033 120.089 68.6884 118.51 68.8295C118.821 68.1005 119.06 67.3949 119.346 66.6877C118.917 66.3694 118.493 66.0509 118.068 65.7369C118.135 65.1102 118.204 64.487 118.276 63.8701C117.474 63.6895 117.356 61.3245 116.663 60.3067C117.287 59.1774 119.806 58.8037 118.971 56.5937C118.354 56.7412 117.738 56.8883 117.121 57.0371C117.164 56.4931 117.21 55.9534 117.259 55.4166C117.459 55.358 117.659 55.3037 117.86 55.2453C117.838 55.5162 117.816 55.7848 117.794 56.0589C118.103 55.7809 118.412 55.5101 118.724 55.2403C118.086 54.5323 117.453 53.8223 116.811 53.014C116.596 54.2546 116.36 55.2954 116.15 56.4471C115.468 55.1465 115.791 54.1971 115.089 52.9649C115.803 51.7753 116.363 52.1259 117.367 52.4486C117.23 52.0596 117.096 51.6682 116.963 51.2845C117.945 51.4446 118.404 50.6987 118.661 53.0253C118.906 52.8319 119.139 52.6383 119.396 52.4504C119.3 52.077 119.493 51.807 119.333 51.4101C118.896 50.332 117.134 49.6653 116.56 49.7944C116.259 49.8636 116.983 50.9005 116.547 50.9033C115.484 50.9125 115.616 48.2932 115.053 52.1084C114.214 50.9417 114.681 50.6064 114.714 49.264C114.376 49.3998 114.04 49.5335 113.701 49.6675C113.787 49.0321 113.878 48.4063 113.976 47.7922C115.866 48.5047 116.086 43.95 118.077 47.8495C118.039 46.7712 117.989 45.4027 117.988 44.2247C118.192 44.463 118.396 44.7021 118.602 44.9416C118.55 45.4943 118.504 46.056 118.465 46.6325C118.737 45.9381 119.015 45.2631 119.304 44.6119C118.767 43.1411 118.096 42.6132 117.264 41.9668C116.767 43.6658 117.534 43.0953 117.79 44.4455C117.28 44.4213 116.82 44.5078 116.279 44.4108C117.262 43.627 116.382 41.4275 116.325 40.9362C116.131 39.2906 117.189 40.5928 117.197 39.4711C117.21 38.3531 116.641 37.0422 117.721 36.3514C117.147 36.304 116.55 36.306 116.025 36.3129C115.953 34.7363 116.63 35.0598 116.729 34.9161C117.616 33.5497 117.868 32.6578 117.989 31.7132C118.14 30.7019 118.255 29.4211 119.008 28.3999C118.65 28.5415 118.33 28.7088 117.991 28.9408C118.301 26.4457 117.609 27.5436 116.28 29.5204C116.769 28.5299 116.989 27.7508 117.259 26.9581C117.596 26.0957 118.008 25.2656 118.766 24.653C120.346 23.237 123.692 23.8867 124.478 24.5721C122.14 24.7831 119.507 24.6518 117.722 26.8623C118.356 27.0621 118.89 27.2619 119.48 27.6343C119.541 26.7552 120.019 26.3815 120.423 26.3035C120.851 26.2165 121.146 26.4118 121.356 26.4501C122.508 26.7477 122.492 25.7246 123.224 26.9206C123.213 26.5185 123.204 26.1807 123.185 25.8047C125.71 26.1452 128.29 28.2913 130.207 27.7186C129.91 28.6344 129.587 29.4969 129.281 30.432C130.529 30.3413 131.012 31.5182 131.951 31.9638C132.917 32.4367 132.924 31.5108 133.934 31.8809C134.116 31.948 134.162 32.571 134.745 32.5731C135.308 32.5492 138.38 31.6431 137.203 33.6331C137.97 34.2686 138.674 34.9659 139.454 35.6878C138.59 35.1132 137.753 34.5763 136.944 34.0858C137.237 35.0353 137.531 35.9979 137.836 36.9845C138.226 36.6696 138.623 36.3496 139.009 36.0398C140.955 36.9259 141.413 38.4216 143.118 39.7469C143.403 39.9705 143.418 38.6473 144.433 39.9436C145.388 41.1884 145.38 43.7012 147.522 44.8513C147.635 44.9129 149.117 44.4304 149.102 45.785C149.098 46.0911 148.256 45.6975 148.395 46.2456C148.528 46.7845 149.897 48.5282 149.546 49.1481C149.698 48.9586 149.776 48.6797 149.901 48.4556C150.247 48.647 150.597 48.8445 150.948 49.0472C150.675 49.376 150.403 49.7072 150.13 50.0342C152.328 50.9029 154.494 50.8439 156.281 53.5706C156.182 52.5513 155.925 51.3612 155.686 50.2016C155.191 50.3061 154.695 50.4145 154.205 50.5264C153.227 49.2311 152.271 47.9792 151.346 46.7738C150.828 46.9489 150.317 47.1283 149.803 47.3078C149.574 46.9807 149.348 46.6608 149.122 46.3397C149.438 46.1513 149.752 45.9654 150.071 45.7809C149.471 45.2939 148.878 44.821 148.297 44.3632C150.803 43.8844 151.211 47.5877 152.301 46.183C152.358 46.6359 152.415 47.0923 152.473 47.5503C153.184 47.0585 153.521 47.7625 154.349 48.8347C154.435 48.3136 154.496 47.7742 154.603 47.27C155.055 48.6037 156.796 50.3804 157.497 51.4806C157.781 51.9363 156.981 51.982 157.035 52.1475C157.3 52.9948 159.132 53.4002 159.296 53.7081C160.265 55.5321 159.651 57.91 162.156 58.7013C160.834 56.7119 161.584 57.7681 161.576 56.634C161.574 56.2788 159.936 53.7163 162.28 56.6604C162.525 56.9569 166.216 63.3131 163.86 62.2678C164.872 62.9015 165.835 63.4026 166.75 63.9011C166.139 67.5636 167.612 65.1669 168.266 63.6635C168.52 63.948 168.768 64.2145 169.027 64.5156C167.321 64.9059 170.051 68.2452 171.634 68.9136C172.158 69.1315 171.609 67.7115 172.547 68.459C172.829 68.9621 173.139 69.5482 173.436 70.092C173.609 68.772 175.002 69.8431 175.739 69.1696C175.784 70.6092 174.915 72.5108 173.75 72.7086C174.654 73.1466 175.568 73.5992 176.487 74.0569C176.385 73.563 176.279 73.0678 176.179 72.5773C176.922 73.9614 178.212 75.2087 179.181 76.3627C180.076 77.4268 180.57 78.2971 179.967 79.2147C180.212 79.492 180.46 79.775 180.707 80.055C181.05 79.9153 181.391 79.7724 181.734 79.6331C182.571 81.1479 183.419 82.6866 184.287 84.2531C183.139 83.1785 182.522 83.2172 181.824 81.7064C181.902 82.4485 181.987 83.2041 182.061 83.9429C184.439 85.1462 185.194 84.931 187.332 88.1285C187.426 88.2685 188.546 91.1514 188.543 91.2931C188.516 91.9175 187.62 91.7446 187.589 92.0382C187.494 92.8485 188.56 96.546 188.352 96.6376C185.675 97.5725 178.475 88.5887 176.595 86.5177C166.181 74.8426 156.422 63.0517 146.069 51.9415C144.79 50.5755 143.591 49.3149 142.381 48.072C140.93 46.5906 139.551 45.2242 138.243 43.9704C135.869 41.672 132.69 38.8617 130.257 37.0398C127.509 34.926 124.414 33.2417 123.123 33.0592C122.786 32.9952 122.738 33.0421 122.92 32.9997C123.081 32.9765 123.476 32.7653 123.591 32.6355C123.719 32.5093 123.64 32.5543 123.517 32.8515C123.456 32.992 123.369 33.2372 123.307 33.4603C123.247 33.6745 123.185 33.9276 123.128 34.2168C123.093 34.4103 123.502 34.4243 123.502 34.5099C123.499 35.0305 122.799 35.5655 122.745 35.8265C122.633 36.3782 123.238 36.151 123.206 36.5011C122.878 40.2579 122.945 45.1599 123.623 49.6674C123.67 49.9787 123.171 49.7058 123.325 50.2494C123.406 50.5303 124.229 51.3526 124.336 52.0149C124.713 54.3379 124.769 56.0721 125.214 58.5294C125.459 59.8804 125.765 61.8414 126.056 63.272C126.185 63.9105 126.635 64.526 126.774 65.1655C126.972 66.0744 126.294 66.0065 126.282 66.1544C126.235 66.8071 126.956 66.7642 127.062 67.3602C127.255 68.4621 126.808 68.6587 127.131 69.9859C127.363 70.944 128.218 73.1105 128.605 74.3416C128.717 77.42 129.759 80.9795 130.578 83.6836C131.063 85.2798 130.446 85.5745 130.604 86.2378C131.164 88.5601 132.412 90.1151 132.961 92.2949C133.689 95.1867 133.758 97.8827 134.393 100.703C134.496 101.16 135.069 100.923 135.192 101.367C135.647 103.016 136.259 105.091 136.531 106.61C136.833 108.289 136.11 109.09 136.669 110.668C136.833 111.13 137.628 111.103 137.912 111.875C138.366 113.114 138.01 114.613 138.148 115.547C138.333 116.801 138.863 115.566 139.141 117.247C139.153 117.316 138.654 117.682 138.762 118.031C139.074 119.049 139.489 118.856 139.788 120.371C139.816 120.518 139.732 122.613 139.773 122.808C140.014 123.924 140.368 126.433 140.627 127.096C141.564 129.522 141.986 127.398 140.61 129.86C141.25 130.703 141.891 131.534 142.522 132.427C141.979 131.813 141.953 134.695 142.025 134.878C142.64 136.422 143.172 135.356 143.435 137.385C141.292 135.019 143.709 139.993 143.935 141.12C145.143 146.974 145.5 152.124 145.852 158.324C145.964 160.485 146.366 163.084 146.15 165.745C146.103 166.318 145.745 165.838 145.691 166.335C145.637 166.829 146.136 166.34 146.053 166.905C145.801 168.541 145.227 170.427 144.565 172.192C144.225 173.096 143.921 173.876 143.486 174.915C143.001 176.039 142.446 177.21 141.691 178.469C141.391 178.569 141.31 178.479 140.873 178.681C139.838 180.49 136.461 182.494 133.239 182.494L132.548 182.525C130.601 182.312 128.766 181.733 127.812 181.531C125.028 180.926 124.261 181.412 122.252 180.833C119.582 180.074 116.175 177.439 117.269 180.049C115.461 179.482 113.759 178.788 112.126 177.785C111.945 177.672 112.286 177.253 112.215 177.206C111.77 176.904 111.422 177.255 111.09 177.11C110.197 176.711 111.849 176.938 110.551 176.435C109.876 176.163 109.321 176.357 107.57 175.313C97.0056 168.942 88.7057 158.948 82.3928 149.23C81.9617 148.564 81.8315 149.282 81.3141 148.425C79.4632 145.408 77.1299 139.675 75.6673 137.121C74.1821 134.554 73.86 135.501 72.7453 133.988C72.5314 133.695 73.0349 133.769 72.8957 133.477C71.945 131.501 71.4366 128.924 70.7939 127.292C70.371 126.216 69.8106 126.564 69.4408 125.86C68.8905 124.806 69.0054 123.419 68.7728 122.83C67.6682 120.043 66.4084 118.388 65.6286 115.693C65.534 115.846 65.4359 115.961 65.3377 116.099C64.1498 113.051 63.0149 109.965 61.9387 106.881C61.866 107.07 61.7907 107.254 61.7164 107.444C60.4925 103.788 62.0134 103.756 59.2582 105.036C59.0655 104.805 58.8516 104.563 58.6715 104.341C60.1823 103.949 60.4991 101.395 59.9687 98.4879C59.9302 98.2766 58.0374 97.3478 59.798 96.9691C59.2642 96.7399 58.9071 96.6143 58.4419 96.4223C58.7722 95.6706 59.0965 94.9153 59.4299 94.1693C59.2528 93.8728 59.0779 93.5719 58.9019 93.2754C58.5505 93.3275 58.212 93.4672 57.8497 93.4618C57.3362 91.9889 56.8442 88.813 56.4634 87.6457C55.5065 84.7511 53.7633 81.9859 54.1523 79.4467C53.7566 78.358 53.3775 79.6302 53.0279 77.9502C53.3184 77.6804 53.5976 77.4245 53.8966 77.144C52.0294 76.1506 52.8767 75.6396 52.7289 73.7077C52.632 72.4023 52.0582 71.662 51.8404 70.4407C51.7858 70.1317 52.2435 70.0758 52.179 69.8708C51.9645 69.184 50.8815 67.3298 50.7526 66.842C49.5553 62.392 48.8008 58.534 48.1083 54.223C48.0329 53.7587 47.7069 54.4363 47.6306 53.9553C47.5076 53.1821 48.2819 53.5128 48.2278 53.0632C48.0838 51.8846 47.4319 51.9187 47.0504 50.4966L56.5939 56.8934C56.5323 56.9157 56.4668 56.937 56.397 56.9574C52.5421 58.0308 48.4728 59.9921 45.6256 63.5614C45.538 63.6725 45.8829 63.951 45.7936 64.0732C45.203 64.8714 44.1574 65.3463 43.6621 66.1635C42.8421 67.5252 42.8189 68.9083 42.1588 70.3432C40.8525 73.2381 39.6399 75.9278 38.7903 79.2742C38.0935 82.0812 37.6957 84.5249 37.2502 87.7717C35.4039 101.884 37.6235 117.084 39.0738 131.868C39.1113 132.247 38.7115 132.141 38.7451 132.254C39.0745 133.324 39.5988 133.346 38.5959 133.874C39.0244 135.205 39.8976 135.553 40.1356 137.24C40.2649 138.133 38.9104 137.673 39.8212 139.061C40.6568 140.319 41.0068 138.646 41.1456 142.849C41.1486 142.957 40.5096 143.624 40.8805 144.401C41.2551 145.191 41.5628 144.084 42.1815 146.081C43.5616 150.425 44.6645 157.152 46.5492 160.585C46.5755 160.63 46.65 160.719 46.7674 160.842C46.8711 160.949 46.9754 160.952 46.755 160.572C46.6651 160.427 46.2332 159.785 45.1221 159.049C44.5594 158.683 43.7811 158.285 42.7938 158.033C41.7283 157.73 39.9298 157.687 38.5878 158.121C35.7888 158.964 34.5681 160.933 34.3816 161.137C34.0592 161.576 33.9121 161.835 33.8118 161.99C33.45 162.574 33.342 162.683 33.2052 162.757C33.078 162.823 32.9754 162.782 32.8727 162.766C32.6712 162.701 32.5046 162.706 32.4803 162.213C32.4361 161.367 33.1025 160.776 32.9512 159.183C32.9316 159.03 32.2712 158.835 32.3231 157.84ZM130.701 171.872C130.932 171.381 131.286 169.901 132.145 169.492L131.704 169.512C131.774 169.365 131.803 169.343 131.898 169.512C131.917 169.543 132.048 169.967 132.155 170.423C132.265 170.877 132.394 171.363 132.67 171.407C132.499 171.565 132.269 171.684 131.97 171.761L132.215 171.75C131.709 171.804 131.206 171.837 130.701 171.875C130.701 171.874 130.701 171.873 130.701 171.872ZM46.9087 148.699C46.9535 150.376 46.9695 151.936 46.9556 153.374C46.5942 152.398 46.2201 151.373 45.8304 150.302C46.1926 149.781 46.5528 149.249 46.9087 148.699ZM66.675 83.793C66.6746 83.7916 66.6742 83.7902 66.6738 83.7889C67.3991 85.2077 68.1339 86.62 68.8765 88.0232C68.6126 87.9291 68.3476 87.8345 68.0837 87.7396C67.3891 86.6593 66.6999 85.5719 66.0165 84.4831C66.2358 84.2528 66.4552 84.0225 66.675 83.793ZM61.1519 72.4355C61.1698 71.403 61.6707 71.5389 61.9679 70.907C61.9671 70.9072 61.9663 70.9074 61.9655 70.9076C62.0423 70.7411 61.9791 70.065 61.934 69.808C61.6807 69.9645 61.4374 70.1466 61.1881 70.3103C59.9558 68.1748 61.2937 63.2393 63.6197 68.7474C63.2498 68.7403 62.8826 68.7364 62.5127 68.7289C63.2969 71.5468 63.3577 74.8927 61.1519 72.4355ZM134.515 155.788C133.134 153.551 132.805 152.777 133.206 149.695C133.589 150.04 133.98 150.451 134.367 150.855C134.095 151.401 133.82 151.932 133.539 152.455C133.539 152.457 133.54 152.458 133.54 152.459C133.907 152.526 134.274 152.594 134.64 152.658C134.618 153.739 134.576 154.787 134.515 155.788ZM26.6648 109.801C24.3401 110.522 25.6911 110.315 25.1012 108.273C24.8986 107.565 24.5045 108.252 24.4249 107.81C23.9975 105.414 25.586 105.262 26.41 105.806C26.4827 107.142 26.5668 108.49 26.6646 109.797C26.6646 109.798 26.6647 109.8 26.6648 109.801ZM43.7334 166.742C43.7342 166.74 43.7349 166.738 43.7357 166.736C44.337 166.828 43.806 168.479 45.031 166.946C44.9159 167.288 44.7769 167.629 44.5807 167.981C44.4721 168.17 44.4027 168.291 44.202 168.557C43.9462 168.887 43.6049 169.232 43.1373 169.513C42.2649 170.143 40.5705 170.052 40.061 169.782C39.3482 169.516 38.8714 169.139 38.4865 168.781C38.9706 169.157 39.5953 169.574 40.5049 169.746C39.7551 169.349 39.3766 168.817 39.1337 168.353C38.9045 168.373 38.7157 168.33 38.553 168.236C38.4715 168.189 38.3965 168.129 38.3256 168.057C38.264 167.994 38.2372 167.957 38.1979 167.893C38.0516 167.649 37.9515 167.271 37.7474 166.739C37.3226 167.38 36.9293 168.053 36.6113 168.793C36.2135 168.098 35.897 167.358 35.6588 166.688C35.4931 166.155 35.3416 165.602 35.1947 165.021C35.3496 164.936 35.5047 164.851 35.6599 164.766C35.2835 164.479 34.8589 164.058 34.5215 163.824C34.6783 163.651 34.8354 163.483 34.9934 163.311C34.6768 162.947 34.3581 162.56 34.0361 162.152C34.465 161.832 35.0432 162.801 34.2638 161.005C34.9611 161.415 35.6512 161.784 36.3368 162.111C36.5638 162.731 36.7853 163.314 37.0958 164.041C37.4053 164.753 37.6064 165.21 38.0218 165.97C38.2313 166.347 38.443 166.691 38.6681 167.007C38.789 167.174 38.8697 167.284 39.0451 167.488C39.2564 167.729 39.4863 167.955 39.7712 168.16C40.0557 168.362 40.4035 168.55 40.8423 168.64C41.4134 168.767 42.1197 168.619 42.5813 168.29C42.8168 168.131 43.0043 167.945 43.1572 167.755C43.3134 167.556 43.3337 167.516 43.4105 167.395C43.5403 167.182 43.6436 166.966 43.7334 166.742ZM26.3409 91.2859C26.1999 94.2352 25.9056 93.3661 24.7896 92.5548C25.3039 92.1335 25.8212 91.7061 26.3409 91.2859ZM86.65 138.015C87.7471 138.327 88.8354 138.626 89.9106 138.926C91.1454 140.108 90.8431 142.291 89.6947 141.54C88.3034 140.606 88.1311 138.862 86.65 138.015ZM111.693 165.889C110.238 164.498 112.272 164.701 112.905 164.439C112.909 165.491 113.588 165.822 114.572 166.486C113.584 166.012 111.943 166.127 111.692 165.891C111.692 165.89 111.693 165.89 111.693 165.889ZM73.4068 107.422C73.0915 106.648 72.5999 105.952 72.5971 105.163C73.3841 105.121 73.2494 106.741 73.9364 105.37C74.1369 105.86 74.3368 106.346 74.5416 106.833C73.989 106.678 73.8217 107.22 73.4084 107.419C73.4078 107.42 73.4073 107.421 73.4068 107.422ZM32.5485 63.0576C34.1474 61.9702 33.9636 61.4879 34.3611 59.6149C35.1007 59.8359 35.0668 62.2834 34.7287 63.5518C34.0036 63.381 33.2796 63.2102 32.5485 63.0576ZM161.869 52.8787C160.927 53.2214 158.979 51.26 158.258 50.0802C158.485 50.1218 158.68 50.1271 158.892 50.1503C159.865 51.0289 160.86 51.9408 161.869 52.8787ZM115.037 166.812C114.875 166.694 114.72 166.586 114.572 166.486C114.749 166.572 114.908 166.677 115.037 166.812ZM130.359 110.534C131.374 111.021 131.187 108.955 131.428 111.46C131.429 111.46 131.43 111.459 131.431 111.459C131.589 113.113 131.613 113.479 131.893 114.972C130.669 114.676 129.574 111.765 130.313 115.942C130.325 115.998 130.953 115.743 131.019 116.43C131.04 116.644 130.658 117.426 130.734 118.467C130.759 118.803 131.156 121.282 130.378 117.951C129.634 118.213 128.816 118.199 128.074 118.365C127.554 117.1 128.829 115.806 128.473 114.457C127.941 112.455 126.179 111.753 128.076 110.929C128.971 112.53 129.666 115.437 128.555 116.069C128.922 117.706 130.019 118.001 130.191 116.544C128.25 111.021 131.29 114.687 129.326 109.871C129.036 109.872 128.689 109.732 128.436 109.82C129.047 108.079 129.997 110.361 130.359 110.534ZM131.006 122.902C130.2 122.046 129.387 121.191 128.574 120.333C129.528 120.132 130.511 120.497 131.4 121.932C131.268 122.255 131.137 122.581 131.006 122.902ZM114.172 39.3095C113.638 39.1366 113.15 38.6982 112.646 38.3664C112.869 38.2001 113.132 36.193 113.495 34.8778C113.89 33.2622 114.267 32.361 114.204 34.4631C114.157 35.1116 113.052 38.2333 114.172 39.3095ZM29.0913 74.5349C29.6606 73.819 30.257 73.0676 30.8582 72.3613C30.6686 73.7355 30.5422 75.0645 30.4463 76.4004C29.9886 75.7854 29.5358 75.166 29.0913 74.5349ZM93.4684 150.022C93.2693 149.723 94.5568 150.225 93.6218 149.167C94.619 149.727 95.518 150.249 96.4739 150.748C96.3935 151.202 96.3141 151.653 96.2461 152.118C96.5663 152.162 96.8875 152.207 97.2059 152.245C96.7341 152.463 96.2797 152.684 95.7933 152.897C95.5332 150.859 94.3678 151.349 93.4684 150.022ZM68.3588 104.622C69.2835 103.969 70.75 106.138 70.0752 103.736C70.9113 103.946 71.519 104.535 72.0764 105.872C71.8983 106.182 71.7223 106.492 71.5452 106.803C72.2467 106.585 72.6298 106.838 73.4068 107.422C73.4062 107.423 73.4057 107.424 73.4052 107.424C74.2313 109.467 73.9599 109.423 73.0221 110.347C72.8223 107.928 71.766 108.236 70.5958 106.966C69.7915 106.09 69.4973 104.669 68.3588 104.622ZM114.654 47.2502C113.567 45.6028 112.823 47.1558 113.564 44.0339C113.813 44.22 114.061 44.4065 114.311 44.5916C114.414 45.4571 114.533 46.3943 114.654 47.2502ZM69.267 95.7063C67.7116 96.3881 66.9504 98.2784 69.6511 97.6872C69.7071 96.0804 68.4553 97.2525 69.267 95.7063ZM109.745 167.816C107.366 166.11 108.943 164.82 110.376 164.658C110.331 165.053 110.289 165.45 110.249 165.843C110.739 165.982 111.224 166.108 111.719 166.235C111.072 166.771 110.41 167.298 109.745 167.816ZM51.6247 49.0754C53.3371 47.1321 49.084 49.2765 50.2868 47.9906C51.2781 46.9137 53.3514 47.6422 52.9563 48.5851C52.5452 48.7314 52.0921 48.8945 51.6288 49.074C51.6274 49.0745 51.6261 49.0749 51.6247 49.0754ZM57.8691 58.9207C59.0595 58.3141 58.7988 58.903 58.2041 57.222C58.0291 56.7369 57.709 52.762 56.9909 54.5872C57.2754 55.9778 57.5669 57.4583 57.8691 58.9207ZM136.322 167.644C136.939 167.778 137.295 171.007 136.755 171.178C136.756 171.178 136.757 171.178 136.757 171.179C136.117 171.482 136.217 170.768 136.091 170.325C135.996 169.819 135.809 169.377 135.079 169.631C135.988 168.762 135.842 167.608 135.861 167.035C135.873 166.486 136.077 166.408 137.676 166.801C137.518 168.591 136.984 167.627 136.322 167.644ZM184.657 83.9113C184.658 83.9124 184.659 83.9135 184.66 83.9146C184.55 83.7353 184.124 81.8936 184.471 81.8692C185.556 83.6036 184.912 83.6694 186.797 84.5911C186.643 84.858 186.485 85.1076 186.334 85.3822C185.725 84.8957 185.196 84.7883 184.657 83.9113ZM116.12 31.4981C116.075 32.2039 115.211 33.4377 115.139 34.4137C113.13 30.8853 116.541 28.3325 116.12 31.4981ZM30.7997 142.028C30.7984 142.026 30.7972 142.024 30.796 142.022C30.7973 142.023 30.7987 142.023 30.8001 142.024C30.7999 142.025 30.7998 142.027 30.7997 142.028ZM122.592 89.6259C122.718 89.4991 122.834 89.4177 122.943 89.374C122.953 89.3716 122.964 89.3693 122.975 89.367C122.848 89.4482 122.72 89.5332 122.592 89.6259ZM136.671 161.62C137.062 161.068 137.586 161.682 137.934 162.818C138.283 164.005 138.405 165.455 138.174 166.076C137.827 165.929 137.505 165.863 137.117 165.595C138.186 164.724 136.556 161.657 136.671 161.62ZM77.5562 121.309C78.9167 124.384 74.2943 121.644 76.4808 120.475C76.5272 120.463 77.5169 121.233 77.5562 121.309ZM122.286 171.732C121.272 172.428 122.802 173.18 120.283 172.209C120.204 171.921 120.127 171.633 120.053 171.345C120.798 171.498 121.542 171.626 122.286 171.732ZM84.295 142.998C87.0351 146.479 90.1627 149.266 90.6872 145.49C90.4392 145.272 90.1894 145.044 89.9436 144.824C88.8792 145.496 88.7904 144.134 87.8959 142.642C87.3434 142.705 86.7301 141.94 86.2746 142.009C85.3913 142.141 85.503 143.421 84.295 142.998ZM30.1088 119.31C29.8874 119.254 29.6649 119.199 29.4456 119.142C29.1453 118.48 28.8491 117.814 28.556 117.157C28.9782 117.247 29.4005 117.336 29.8228 117.424C29.9146 118.043 30.0112 118.679 30.1097 119.306C30.1094 119.308 30.1091 119.309 30.1088 119.31ZM134.514 126.428C132.104 126.503 132.835 127.774 134.579 130.233C134.565 128.98 134.542 127.708 134.514 126.428ZM59.5134 78.4519C60.143 78.2027 60.771 77.9559 61.3998 77.7037C60.3474 76.4643 59.6683 76.9054 58.9831 77.7989C59.1599 78.0185 59.3363 78.2328 59.5134 78.4519ZM54.3407 57.9713C54.329 58.5935 54.7984 58.187 54.8009 58.2514C54.8424 59.8132 54.6438 60.0793 55.4495 61.8341C55.6393 62.0312 55.8356 62.2229 56.0299 62.4189C57.2227 61.2866 56.3338 60.8363 56.7581 58.8712C56.3529 59.2882 55.9483 59.709 55.5417 60.126C55.4237 59.1014 55.3084 58.0782 55.1989 57.0581C55.0274 56.967 54.8572 56.8753 54.6857 56.7841C54.5717 57.176 54.4375 57.5847 54.3407 57.9713ZM30.3028 127.099C30.3685 128.09 30.4386 129.079 30.5158 130.055C30.8665 130.052 31.2194 130.047 31.5701 130.044C31.1426 129.078 30.7194 128.093 30.3028 127.099ZM128.85 106.724C128.711 106.674 128.572 106.626 128.434 106.587C128.585 106.56 128.722 106.618 128.85 106.724ZM184.838 87.1789C185.36 88.2194 186.517 89.4114 187.274 90.4463C187.879 89.8053 185.684 87.4387 185.4 86.2427C185.169 86.204 184.616 86.7391 184.838 87.1789ZM106.5 165.405C106.024 165.59 105.545 165.769 105.063 165.945C104.548 165.475 104.039 164.992 103.532 164.499C103.293 164.766 103.053 165.035 102.814 165.301C105.516 166.948 104.318 167.269 105.009 169.086C105.485 167.847 105.981 166.619 106.5 165.405ZM38.7996 157.417C37.9227 155.436 37.2695 154.726 36.6004 156.244C37.069 156.959 37.5365 157.634 37.998 158.258C38.264 157.977 38.531 157.695 38.7996 157.417ZM120.679 67.7487C119.918 66.0123 121.324 65.7325 120.197 64.1413C120.116 65.1098 120.038 66.0911 119.969 67.079C120.204 67.2999 120.443 67.5273 120.679 67.7487ZM143.134 155.458C143.566 154.642 141.076 153.395 142.544 150.947C141.956 150.447 141.415 150.152 140.843 149.73C141.36 149.386 141.882 149.038 142.399 148.738C142.399 148.736 142.399 148.735 142.399 148.733C141.942 146.82 141.423 148.157 140.83 148.18C140.585 148.191 140.782 146.703 140.318 147.218C139.922 147.662 139.956 148.585 139.941 149.397C139.938 150.291 139.886 151.083 139.33 151.138C139.559 149.977 138.981 148.057 138.322 148.723C137.59 149.367 139.225 151.285 138.68 152.557C140.26 150.63 140.123 154.353 138.772 154.803C139.995 156.763 140.293 154.921 140.003 152.723C141.195 153.977 140.418 152.056 141.244 151.637C141.969 153.054 141.902 157.678 143.134 155.458ZM75.3495 127.236C76.035 128.538 76.528 130.899 77.7763 131.407C78.4984 131.7 77.8193 129.457 79.253 130.515C78.5415 129.272 78.116 129.11 77.5899 129.647C77.3683 129.389 77.1457 129.123 76.9282 128.865C76.9865 128.669 77.0418 128.471 77.1006 128.275C76.7643 128.248 76.4293 128.219 76.0943 128.194C75.9956 127.856 75.896 127.513 75.8007 127.173C75.6509 127.199 75.5058 127.19 75.3495 127.236ZM128.128 28.6075C127.969 28.5324 127.851 28.4786 127.658 28.3916C127.457 28.3007 127.26 28.2153 127.064 28.1351C127.043 28.3177 127.026 28.5104 127.007 28.6998C126.988 28.8479 126.969 28.9958 126.949 29.1435C126.932 28.5506 125.402 27.0333 124.652 27.4441C124.307 27.651 124.707 28.7159 123.568 28.6738C124.348 28.7451 125.237 28.8656 126.333 29.2379C126.136 29.4679 125.948 29.7058 125.763 29.9426C125.764 29.9432 125.764 29.9439 125.765 29.9445C126.07 30.1375 126.391 30.3537 126.725 30.5847C127.21 29.9315 127.643 29.2567 128.128 28.6075ZM58.5325 79.9286C59.4339 81.1352 59.8376 81.5085 60.5347 80.6535C60.5347 80.652 60.5347 80.6505 60.5348 80.649C60.0134 80.2504 59.4927 79.8497 58.9726 79.4477C58.8256 79.6066 58.6781 79.7654 58.5325 79.9286ZM128.976 94.5315C124.957 92.4118 128.543 98.3951 129.385 96.9184C129.424 96.8514 128.671 94.8802 128.976 94.5315ZM109.655 169.023C108.953 168.605 108.267 168.172 107.579 167.717C107.501 168.182 107.432 168.649 107.363 169.117C108.136 169.106 108.897 169.071 109.655 169.023ZM37.8572 148.064C38.5733 147.031 38.4505 144.927 37.2415 144.121C37.2362 144.673 37.2319 145.22 37.2288 145.76C36.8986 144.807 36.5616 143.838 36.242 142.821C34.9454 142.996 35.9325 144.077 35.9574 145.87C35.9471 146.105 34.7775 148.284 36.1175 148.628C36.391 148.702 36.1171 146.768 37.1375 147.933C37.0605 147.351 36.9307 146.84 36.8409 146.291C37.1375 146.192 37.4345 146.093 37.7303 145.99C37.7647 146.663 37.8127 147.384 37.8572 148.064ZM79.3081 134.913C80.2115 136.757 80.795 136.716 81.7995 136.635C81.2552 135.866 80.716 135.086 80.1796 134.297C79.8905 134.504 79.5987 134.705 79.3081 134.913ZM34.9449 130.812C34.9433 129.72 34.2598 130.256 34.0592 129.85C33.3063 128.312 33.7007 127.152 33.1751 125.569C33.3324 125.663 33.4791 125.749 33.6317 125.839C33.6315 125.838 33.6314 125.836 33.6312 125.835C33.4469 118.204 32.1294 122.265 32.9533 126.852C32.6879 126.986 32.4217 127.116 32.1587 127.25C32.8975 129.243 33.6337 131.048 34.9449 130.812ZM135.113 119.917C135.264 119.794 136.521 120.31 135.693 119.022C133.854 118.251 135.057 119.898 134.548 120.475C134.31 120.131 134.074 119.777 133.837 119.436C133.902 121.779 134.349 122.02 135.326 120.966C135.39 120.891 134.963 120.04 135.113 119.917ZM132.427 104.987C130.021 105.193 131.745 107.788 132.445 107.529C132.38 107.131 131.913 106.913 131.988 106.458C132.062 106 132.582 105.776 132.427 104.987ZM121.692 176.817C121.771 176.853 122.454 178.086 122.527 177.273C121.821 175.157 119.46 175.695 119.635 176.44C120.363 176.638 120.909 176.503 121.691 176.82C121.692 176.819 121.692 176.818 121.692 176.817ZM41.9357 160.014C41.9605 159.986 41.9003 159.503 41.7734 158.964C41.7101 158.695 41.6303 158.414 41.5381 158.188C41.4525 157.981 41.3628 157.855 41.2536 157.824C40.7898 157.766 40.3279 157.807 39.8635 157.791C40.0459 158.021 40.1969 158.295 40.3579 158.624C40.5289 158.981 40.6908 159.334 40.8534 159.614C41.1792 160.175 41.506 160.45 41.9344 160.01C41.9348 160.012 41.9353 160.013 41.9357 160.014Z" fill="#B9C5B2"/>
</svg>
